<svg width="32" height="32" viewBox="0 0 32 32" fill="none" xmlns="http://www.w3.org/2000/svg">
<circle cx="16" cy="16" r="16" fill="#333333"/>
<g clip-path="url(#clip0)">
<path d="M16.0005 7.87982C18.6453 7.87982 18.9583 7.89005 20.0029 7.93762C20.9686 7.98166 21.4931 8.14286 21.8422 8.2785C22.3046 8.45818 22.6344 8.67285 22.9812 9.01923C23.328 9.36601 23.5427 9.69588 23.7219 10.1582C23.8576 10.5074 24.0188 11.0319 24.0628 11.9975C24.1104 13.0418 24.1206 13.3551 24.1206 16C24.1206 18.6448 24.1104 18.9578 24.0628 20.0025C24.0188 20.9681 23.8576 21.4926 23.7219 21.8417C23.5423 22.3041 23.3276 22.6339 22.9812 22.9807C22.6344 23.3275 22.3046 23.5422 21.8422 23.7215C21.4931 23.8571 20.9686 24.0183 20.0029 24.0623C18.9587 24.1099 18.6453 24.1201 16.0005 24.1201C13.3556 24.1201 13.0422 24.1099 11.998 24.0623C11.0324 24.0183 10.5079 23.8571 10.1587 23.7215C9.69636 23.5418 9.36649 23.3271 9.01972 22.9807C8.67294 22.6339 8.45827 22.3041 8.27898 21.8417C8.14334 21.4926 7.98214 20.9681 7.9381 20.0025C7.89053 18.9582 7.88031 18.6448 7.88031 16C7.88031 13.3551 7.89053 13.0422 7.9381 11.9975C7.98214 11.0319 8.14334 10.5074 8.27898 10.1582C8.45866 9.69588 8.67333 9.36601 9.01972 9.01923C9.36649 8.67246 9.69636 8.45779 10.1587 8.2785C10.5079 8.14286 11.0324 7.98166 11.998 7.93762C13.0426 7.89005 13.3556 7.87982 16.0005 7.87982ZM16.0005 6.09522C13.3104 6.09522 12.973 6.10662 11.9166 6.15498C10.8625 6.20295 10.1426 6.37044 9.51236 6.61539C8.86087 6.86859 8.30847 7.20711 7.75803 7.75794C7.20759 8.30838 6.86868 8.86079 6.61587 9.51188C6.37092 10.1421 6.20343 10.862 6.15547 11.9161C6.10711 12.9726 6.0957 13.3099 6.0957 16C6.0957 18.6901 6.10711 19.0274 6.15547 20.0838C6.20343 21.1379 6.37092 21.8578 6.61587 22.4881C6.86907 23.1396 7.20759 23.692 7.75842 24.2424C8.30926 24.7932 8.86127 25.1318 9.51275 25.385C10.1426 25.6299 10.8629 25.7974 11.917 25.8454C12.9734 25.8937 13.3108 25.9051 16.0009 25.9051C18.6909 25.9051 19.0283 25.8937 20.0847 25.8454C21.1388 25.7974 21.8591 25.6299 22.489 25.385C23.1404 25.1318 23.6929 24.7932 24.2433 24.2424C24.7941 23.6916 25.1326 23.1396 25.3858 22.4881C25.6308 21.8582 25.7983 21.1379 25.8463 20.0838C25.8946 19.0274 25.906 18.6901 25.906 16C25.906 13.3099 25.8946 12.9726 25.8463 11.9161C25.7983 10.862 25.6308 10.1417 25.3858 9.51188C25.1326 8.86039 24.7941 8.30799 24.2433 7.75755C23.6925 7.20672 23.1404 6.8682 22.489 6.61499C21.8583 6.37044 21.1384 6.20295 20.0843 6.15498C19.0279 6.10662 18.6905 6.09522 16.0005 6.09522Z" fill="#CCD4C7"/>
<path d="M16.0001 10.9134C13.1909 10.9134 10.9141 13.1907 10.9141 15.9995C10.9141 18.8083 13.1913 21.0855 16.0001 21.0855C18.8089 21.0855 21.0862 18.8083 21.0862 15.9995C21.0862 13.1907 18.8093 10.9134 16.0001 10.9134ZM16.0001 19.3009C14.1766 19.3009 12.6987 17.8226 12.6987 15.9995C12.6987 14.1759 14.177 12.698 16.0001 12.698C17.8233 12.698 19.3016 14.1763 19.3016 15.9995C19.3016 17.823 17.8236 19.3009 16.0001 19.3009Z" fill="#CCD4C7"/>
<path d="M21.2882 11.9004C21.9446 11.9004 22.4767 11.3683 22.4767 10.7119C22.4767 10.0554 21.9446 9.5233 21.2882 9.5233C20.6317 9.5233 20.0996 10.0554 20.0996 10.7119C20.0996 11.3683 20.6317 11.9004 21.2882 11.9004Z" fill="#CCD4C7"/>
</g>
<defs>
<clipPath id="clip0">
<rect width="19.8095" height="19.8095" fill="white" transform="translate(6.0957 6.09522)"/>
</clipPath>
</defs>
</svg>
