<svg width="32" height="32" viewBox="0 0 32 32" fill="none" xmlns="http://www.w3.org/2000/svg">
<g clip-path="url(#clip0)">
<path d="M29.4407 0H2.73429C1.275 0 0 1.05 0 2.49214V29.2579C0 30.7079 1.275 32 2.73429 32H29.4329C30.9 32 32 30.6993 32 29.2579V2.49214C32.0086 1.05 30.9 0 29.4407 0ZM9.91929 26.6736H5.335V12.42H9.91929V26.6736ZM7.78571 10.2529H7.75286C6.28571 10.2529 5.33571 9.16072 5.33571 7.79357C5.33571 6.40143 6.31071 5.335 7.81071 5.335C9.31071 5.335 10.2286 6.39357 10.2614 7.79357C10.2607 9.16072 9.31071 10.2529 7.78571 10.2529ZM26.6736 26.6736H22.0893V18.88C22.0893 17.0129 21.4221 15.7371 19.7636 15.7371C18.4964 15.7371 17.7464 16.5943 17.4129 17.4293C17.2879 17.7293 17.2543 18.1379 17.2543 18.555V26.6736H12.67V12.42H17.2543V14.4036C17.9214 13.4536 18.9636 12.0864 21.3886 12.0864C24.3979 12.0864 26.6743 14.07 26.6743 18.3464L26.6736 26.6736Z" fill="#333333"/>
<path d="M9.91949 26.6738H5.33521V12.4202H9.91949V26.6738ZM7.78592 10.2531H7.75306C6.28592 10.2531 5.33592 9.16092 5.33592 7.79378C5.33592 6.40163 6.31092 5.33521 7.81092 5.33521C9.31092 5.33521 10.2288 6.39378 10.2616 7.79378C10.2609 9.16092 9.31092 10.2531 7.78592 10.2531ZM26.6738 26.6738H22.0895V18.8802C22.0895 17.0131 21.4223 15.7373 19.7638 15.7373C18.4966 15.7373 17.7466 16.5945 17.4131 17.4295C17.2881 17.7295 17.2545 18.1381 17.2545 18.5552V26.6738H12.6702V12.4202H17.2545V14.4038C17.9216 13.4538 18.9638 12.0866 21.3888 12.0866C24.3981 12.0866 26.6745 14.0702 26.6745 18.3466L26.6738 26.6738Z" fill="#CCD4C7"/>
</g>
<defs>
<clipPath id="clip0">
<rect width="32" height="32" fill="white"/>
</clipPath>
</defs>
</svg>
