<svg width="32" height="32" viewBox="0 0 32 32" fill="none" xmlns="http://www.w3.org/2000/svg">
<path d="M16 32C24.8366 32 32 24.8366 32 16C32 7.16344 24.8366 0 16 0C7.16344 0 0 7.16344 0 16C0 24.8366 7.16344 32 16 32Z" fill="#333333"/>
<path d="M13.0718 24.4395C20.1678 24.4395 24.0478 18.5595 24.0478 13.4635C24.0478 13.2955 24.0478 13.1275 24.0398 12.9675C24.7918 12.4235 25.4478 11.7435 25.9678 10.9675C25.2798 11.2715 24.5358 11.4795 23.7518 11.5755C24.5518 11.0955 25.1598 10.3435 25.4478 9.43948C24.7038 9.87948 23.8798 10.1995 22.9998 10.3755C22.2958 9.62348 21.2958 9.15948 20.1838 9.15948C18.0558 9.15948 16.3278 10.8875 16.3278 13.0155C16.3278 13.3195 16.3598 13.6155 16.4318 13.8955C13.2238 13.7355 10.3838 12.1995 8.47978 9.86348C8.15178 10.4315 7.95978 11.0955 7.95978 11.7995C7.95978 13.1355 8.63978 14.3195 9.67978 15.0075C9.04778 14.9915 8.45578 14.8155 7.93578 14.5275C7.93578 14.5435 7.93578 14.5595 7.93578 14.5755C7.93578 16.4475 9.26378 17.9995 11.0318 18.3595C10.7118 18.4475 10.3678 18.4955 10.0158 18.4955C9.76778 18.4955 9.52778 18.4715 9.28778 18.4235C9.77578 19.9595 11.1998 21.0715 12.8878 21.1035C11.5678 22.1355 9.90378 22.7515 8.09578 22.7515C7.78378 22.7515 7.47978 22.7355 7.17578 22.6955C8.86378 23.7995 10.8958 24.4395 13.0718 24.4395Z" fill="#CCD4C7"/>
</svg>
